# xmcd
#
# Track frame offsets: 
#        150
#        5205
#        25406
#        42391
#        61942
#        83791
#        106577
#        118130
#        158761
#        177122
#        195722
#        212616
#        230904
#        286389
#
# Disc length: 3824 seconds
#
# Revision: 0
# Processed by: cddbd v1.5.2PL0 Copyright (c) Steve Scherf et al.
# Submitted via: ExactAudioCopy v0.99pb4
#
DISCID=c00eee0e
DTITLE=Yonder Mountain String Band - Live At The Station Inn, Nashvill
DTITLE=e , TN  10-14-01 disc 1 of 2
DYEAR=2001
DGENRE=Bluegrass
TTITLE0=Introduction
TTITLE1=Easy as Pie
TTITLE2=High on a Hilltop
TTITLE3=Rich Gal
TTITLE4=A Fathers Arms
TTITLE5=At the end of the Day
TTITLE6=Lord Only Knows
TTITLE7=On TheRun
TTITLE8=I'll Stay Around
TTITLE9=Roll On Blues
TTITLE10=Goin' Across The Sea
TTITLE11=Country Boy Rock and Roll
TTITLE12=No Expectations
TTITLE13=Notes
EXTD=
EXTT0=
EXTT1=
EXTT2=
EXTT3=
EXTT4=
EXTT5=
EXTT6=
EXTT7=
EXTT8=
EXTT9=
EXTT10=
EXTT11=
EXTT12=
EXTT13=
PLAYORDER=
